<svg width="380" height="260" viewBox="0 0 380 260" xmlns="http://www.w3.org/2000/svg">
  <rect width="380" height="260" rx="32" fill="#020617"/>
  <circle cx="140" cy="110" r="60" fill="#4F46E5"/>
  <path d="M140 60C165 60 185 80 185 105C185 130 165 150 140 150C115 150 95 130 95 105C95 80 115 60 140 60Z" fill="#E5E7EB" opacity="0.9"/>
  <rect x="128" y="150" width="24" height="32" rx="6" fill="#E5E7EB"/>
  <rect x="120" y="185" width="40" height="10" rx="5" fill="#4B5563"/>
  <rect x="210" y="80" width="130" height="110" rx="22" fill="#0F172A"/>
  <rect x="225" y="100" width="100" height="10" rx="5" fill="#1D4ED8"/>
  <rect x="225" y="120" width="60" height="8" rx="4" fill="#64748B"/>
  <rect x="225" y="138" width="80" height="8" rx="4" fill="#64748B"/>
  <rect x="225" y="156" width="40" height="8" rx="4" fill="#64748B"/>
  <text x="140" y="230" text-anchor="middle" fill="#E5E7EB" font-family="system-ui" font-size="15">
    Track every idea &amp; rupee
  </text>
</svg>
